<svg width="306" height="55" viewBox="0 0 306 55" fill="none" xmlns="http://www.w3.org/2000/svg">
<g clip-path="url(#clip0)">
<path d="M46.5856 0.724524C43.8338 0.249465 41.046 0.00715321 38.2525 0.00022822C30.588 -0.0643698 23.0365 1.82625 16.3295 5.48893C12.1707 2.58109 7.19632 1.02703 2.10009 1.04348H0V32.866C0.370443 36.8127 1.64811 40.6239 3.73573 44.0095C5.92262 47.3843 8.93588 50.1604 12.4971 52.0814C16.0583 54.0024 20.0525 55.0062 24.1106 55.0002H24.6625H24.8174C25.4433 55.0002 26.0626 54.9338 26.6751 54.8673H26.8569C32.729 54.2203 38.1569 51.47 42.1128 47.1374C46.0687 42.8047 48.2779 37.1904 48.3222 31.3576V1.02355L46.5856 0.724524ZM4.20017 5.31616C7.11514 5.6037 9.93259 6.51043 12.4592 7.97413C9.19826 10.3007 6.39868 13.1996 4.20017 16.5261V5.31616ZM22.6567 50.8006C19.5668 50.5855 16.5702 49.6621 13.905 48.1037C11.2397 46.5454 8.97931 44.395 7.30318 41.8233C5.57735 39.0049 4.51676 35.8389 4.20017 32.5603V28.6465C4.87328 21.656 9.14749 15.1307 16.0132 10.5524C16.3295 10.8381 16.6459 11.1438 16.9488 11.4561C20.6187 15.2264 22.6648 20.2546 22.6567 25.4835V50.8006ZM44.1153 31.331C44.0727 36.0622 42.3046 40.6199 39.135 44.1688C35.9653 47.7178 31.6063 50.0203 26.8569 50.6544V25.4835C26.8629 19.1782 24.3922 13.1162 19.9643 8.57217L19.7893 8.39276C27.3176 4.70485 35.8029 3.36086 44.122 4.53871L44.1153 31.331Z" fill="#FDBC1B"/>
<path d="M76.0608 13.6221H79.4263V18.1207H76.5926C73.3595 18.1242 70.26 19.3941 67.9745 21.6516C65.6891 23.9091 64.4044 26.9696 64.4026 30.1613H75.6233V34.6599H64.4026V51.6045H59.5428V29.9021C59.5437 27.7622 59.9717 25.6434 60.8025 23.6669C61.6332 21.6904 62.8504 19.8949 64.3844 18.3829C65.9184 16.871 67.7392 15.6724 69.7427 14.8555C71.7462 14.0386 73.8931 13.6195 76.0608 13.6221Z" fill="#FDBC1B"/>
<path d="M87.2344 13.6221V44.0558C87.2344 47.0062 88.7017 48.0428 90.1691 48.0428H91.5153V52.2357H89.6373C85.4372 52.2357 82.6505 49.8901 82.6505 44.4412V13.6221H87.2344Z" fill="#FDBC1B"/>
<path d="M106.472 24.965C114.778 24.965 120.748 31.2643 120.748 38.6136C120.748 45.9629 115.101 52.2025 106.472 52.2025C97.8424 52.2025 92.2153 46.0559 92.2153 38.6136C92.2153 31.1713 98.1723 24.965 106.472 24.965ZM97.0482 38.6136C97.0482 45.6572 105.711 51.5181 112.806 45.5177C114.211 44.3418 115.195 42.7504 115.612 40.9792C117.1 34.4406 112.247 29.1646 106.465 29.1646C105.218 29.1715 103.984 29.4218 102.835 29.9011C101.686 30.3803 100.644 31.0792 99.7695 31.9573C98.895 32.8354 98.205 33.8756 97.7391 35.0179C97.2732 36.1603 97.0407 37.3823 97.0549 38.6136H97.0482Z" fill="#FDBC1B"/>
<path d="M156.591 25.563H161.458L151.731 51.6044H147.989L140.901 31.2643H140.8L133.712 51.6044H129.963L120.243 25.563H125.103L131.733 44.408H131.834L138.417 25.563H143.277L149.86 44.408H149.961L156.591 25.563Z" fill="#FDBC1B"/>
<path d="M187.574 46.5543C184.033 50.4549 180.284 52.2025 175.674 52.2025C166.311 52.2025 161.296 45.5044 161.296 38.5605C161.296 31.1647 166.681 24.965 174.92 24.965C183.158 24.965 188.738 31.1115 188.738 40.3081H166.156C166.869 44.7602 170.511 48.0095 175.626 48.0095C178.864 48.0095 181.752 46.5078 184.081 43.81L187.574 46.5543ZM183.576 36.5869C183.118 32.2877 179.578 29.138 174.866 29.138C172.721 29.0465 170.622 29.7707 169.001 31.1615C167.381 32.5523 166.362 34.5036 166.156 36.6135L183.576 36.5869Z" fill="#FDBC1B"/>
<path d="M219.997 43.1122H222.4C223.131 43.0599 223.859 43.2442 224.474 43.6372C224.791 43.8642 225.047 44.1647 225.22 44.5122C225.392 44.8598 225.476 45.2438 225.463 45.6307C225.472 46.0085 225.368 46.3805 225.163 46.6998C224.958 47.0191 224.662 47.2714 224.312 47.4248C224.835 47.5004 225.309 47.7671 225.642 48.172C225.975 48.5769 226.142 49.0905 226.109 49.611C226.105 49.9617 226.029 50.308 225.886 50.6292C225.743 50.9503 225.536 51.2396 225.277 51.4797C225.018 51.7199 224.713 51.9059 224.379 52.0267C224.046 52.1475 223.691 52.2005 223.336 52.1826H219.971L219.997 43.1122ZM222.616 47.0992C222.937 47.1498 223.267 47.0958 223.555 46.9454C223.842 46.7949 224.073 46.5562 224.211 46.2651C224.349 45.9741 224.388 45.6466 224.321 45.332C224.254 45.0174 224.086 44.7327 223.841 44.521C223.426 44.2072 222.908 44.0579 222.387 44.1023H221.162V47.0593L222.616 47.0992ZM222.932 51.2257C224.494 51.2257 224.951 50.4948 224.951 49.6708C224.951 48.9531 224.501 48.1026 222.932 48.1026H221.162V51.2257H222.932Z" fill="#FDBC1B"/>
<path d="M229.441 52.1095L226.836 45.9696H228.075L230.094 50.7805L232.113 45.9696H233.278L229.401 54.8405H228.263L229.441 52.1095Z" fill="#FDBC1B"/>
<path d="M237.734 43.1122H242.499V44.1887H238.898V47.0726H242.499V48.1491H238.898V52.2025H237.734V43.1122Z" fill="#FDBC1B"/>
<path d="M244.956 43.1122V50.2555C244.956 50.9599 245.313 51.1991 245.663 51.1991H245.986V52.2025H245.542C244.532 52.2025 243.866 51.6443 243.866 50.3419V43.1122H244.956Z" fill="#FDBC1B"/>
<path d="M250.159 45.8499C250.602 45.8384 251.042 45.9142 251.454 46.0727C251.866 46.2313 252.242 46.4695 252.56 46.7733C252.878 47.0772 253.131 47.4406 253.305 47.8423C253.479 48.244 253.569 48.6758 253.572 49.1126C253.533 49.9811 253.156 50.8012 252.52 51.4022C251.883 52.0031 251.037 52.3385 250.156 52.3385C249.275 52.3385 248.429 52.0031 247.792 51.4022C247.156 50.8012 246.779 49.9811 246.74 49.1126C246.756 48.2326 247.125 47.3947 247.766 46.783C248.407 46.1713 249.268 45.8357 250.159 45.8499ZM247.904 49.1126C247.904 49.703 248.142 50.2692 248.565 50.6866C248.988 51.1041 249.561 51.3386 250.159 51.3386C250.757 51.3386 251.331 51.1041 251.754 50.6866C252.177 50.2692 252.414 49.703 252.414 49.1126C252.414 48.5222 252.177 47.956 251.754 47.5385C251.331 47.1211 250.757 46.8865 250.159 46.8865C249.561 46.8865 248.988 47.1211 248.565 47.5385C248.142 47.956 247.904 48.5222 247.904 49.1126Z" fill="#FDBC1B"/>
<path d="M263.016 45.9696H264.173L261.838 52.2025H260.936L259.239 47.3384L257.543 52.2025H256.641L254.319 45.9696H255.484L257.065 50.5014L258.64 45.9895H259.818L261.4 50.5014L263.016 45.9696Z" fill="#FDBC1B"/>
<path d="M271.019 50.9998C270.675 51.4179 270.241 51.7544 269.748 51.9845C269.256 52.2145 268.717 52.3322 268.172 52.3287C267.724 52.3544 267.277 52.2887 266.857 52.1356C266.436 51.9824 266.053 51.7453 265.73 51.439C265.407 51.1326 265.152 50.7637 264.98 50.3554C264.808 49.9471 264.724 49.5081 264.732 49.0661C264.716 48.6377 264.789 48.2107 264.947 47.8112C265.105 47.4118 265.343 47.0485 265.649 46.7435C265.954 46.4385 266.319 46.1984 266.721 46.0379C267.124 45.8773 267.556 45.7998 267.99 45.8101C269.942 45.8101 271.301 47.2786 271.301 49.4781H265.917C265.995 50.008 266.269 50.4904 266.687 50.8318C267.105 51.1731 267.636 51.349 268.178 51.3254C268.569 51.3167 268.953 51.2222 269.303 51.0486C269.652 50.875 269.958 50.6268 270.198 50.322L271.019 50.9998ZM270.063 48.6142C269.988 48.1219 269.736 47.6726 269.354 47.3479C268.972 47.0231 268.484 46.8445 267.98 46.8445C267.475 46.8445 266.988 47.0231 266.605 47.3479C266.223 47.6726 265.972 48.1219 265.896 48.6142H270.063Z" fill="#FDBC1B"/>
<path d="M272.728 45.9696H273.819V46.8533C274.364 45.8898 274.882 45.83 275.838 45.83V46.9663C275.675 46.9264 275.508 46.9063 275.34 46.9065C274.431 46.9065 273.826 47.5245 273.826 48.6608V52.2025H272.735L272.728 45.9696Z" fill="#FDBC1B"/>
<path d="M280.153 43.1122H284.918V44.1887H281.317V47.0726H284.918V48.1491H281.317V52.2025H280.153V43.1122Z" fill="#FDBC1B"/>
<path d="M290.384 48.0295C290.384 46.9995 289.341 46.7736 288.493 46.7736C287.885 46.7727 287.286 46.9115 286.742 47.1789L286.271 46.2819C286.99 45.9685 287.767 45.8056 288.553 45.8034C290.068 45.8034 291.474 46.4679 291.474 47.9165V52.1759H290.451V51.5114C290.196 51.7851 289.883 51.9996 289.533 52.1398C289.184 52.2799 288.808 52.3422 288.432 52.3221C286.897 52.3221 285.686 51.4716 285.686 50.0828C285.686 48.9465 286.668 47.9431 288.425 47.9431C289.142 47.9312 289.837 48.1822 290.377 48.6475L290.384 48.0295ZM288.634 48.9133C287.288 48.9133 286.857 49.5778 286.857 50.1625C286.857 50.7473 287.301 51.4051 288.634 51.4051C289.967 51.4051 290.418 50.7406 290.418 50.1625C290.418 49.5844 289.967 48.9133 288.634 48.9133Z" fill="#FDBC1B"/>
<path d="M293.709 43.2451C293.861 43.2438 294.011 43.2873 294.138 43.37C294.265 43.4528 294.365 43.571 294.423 43.7097C294.482 43.8484 294.498 44.0012 294.469 44.1488C294.439 44.2963 294.366 44.4319 294.258 44.5383C294.151 44.6446 294.013 44.7169 293.864 44.7459C293.714 44.7749 293.56 44.7594 293.419 44.7012C293.279 44.643 293.159 44.5449 293.075 44.4193C292.991 44.2938 292.947 44.1464 292.949 43.996C292.949 43.7969 293.029 43.6059 293.171 43.4651C293.314 43.3242 293.507 43.2451 293.709 43.2451ZM293.164 45.9695H294.254V52.2025H293.164V45.9695Z" fill="#FDBC1B"/>
<path d="M296.072 45.9696H297.162V46.8533C297.707 45.8898 298.232 45.83 299.181 45.83V46.9663C299.021 46.926 298.856 46.9059 298.69 46.9065C297.775 46.9065 297.169 47.5245 297.169 48.6608V52.2025H296.078L296.072 45.9696Z" fill="#FDBC1B"/>
<path d="M302.157 52.1095L299.531 45.9696H300.77L302.789 50.7805L304.809 45.9696H305.973L302.096 54.8405H300.952L302.157 52.1095Z" fill="#FDBC1B"/>
<path d="M229.064 35.5171V29.1911L227.166 32.4538H225.059L223.161 29.1911V35.5171H219.876V22.307H223.107L226.116 28.1346L229.118 22.307H232.349V35.5171H229.064Z" fill="#FDBC1B"/>
<path d="M240.413 35.5171V34.6998C239.778 35.2921 238.937 35.6225 238.064 35.6234C237.646 35.6391 237.23 35.5719 236.839 35.4258C236.448 35.2797 236.091 35.0577 235.788 34.7729C235.424 34.3949 235.145 33.9445 234.971 33.4518C234.797 32.9591 234.732 32.4353 234.779 31.9155V25.5364H237.855V31.5169C237.832 31.691 237.848 31.8678 237.9 32.0357C237.952 32.2035 238.04 32.3584 238.157 32.4902C238.275 32.6219 238.419 32.7275 238.581 32.7998C238.743 32.8721 238.919 32.9095 239.097 32.9095C239.275 32.9095 239.45 32.8721 239.612 32.7998C239.774 32.7275 239.919 32.6219 240.037 32.4902C240.154 32.3584 240.242 32.2035 240.294 32.0357C240.346 31.8678 240.361 31.691 240.339 31.5169V25.5364H243.415V35.5038L240.413 35.5171Z" fill="#FDBC1B"/>
<path d="M249.17 35.6234C247.649 35.6234 246.161 35.5503 244.774 34.1815L246.794 32.188C247.125 32.4837 247.513 32.7098 247.936 32.8526C248.358 32.9954 248.805 33.0519 249.251 33.0186C249.702 33.0186 250.597 32.8923 250.597 32.3541C250.597 32.075 250.462 31.776 249.863 31.7228L248.302 31.5767C246.558 31.4039 245.373 30.6264 245.373 28.6795C245.373 26.4734 247.393 25.357 249.412 25.357C251.068 25.357 252.401 25.6029 253.397 26.5863L251.499 28.4535C250.887 27.9964 250.122 27.7851 249.358 27.8621C248.604 27.8621 248.362 28.2143 248.362 28.4403C248.362 28.5466 248.322 28.9187 249.035 28.9918L250.597 29.1446C252.717 29.344 253.639 30.5866 253.639 32.1813C253.545 34.6067 251.519 35.6234 249.17 35.6234Z" fill="#FDBC1B"/>
<path d="M257.799 31.5102C257.804 31.7307 257.856 31.9477 257.95 32.1476C258.044 32.3476 258.179 32.5261 258.347 32.6721C258.514 32.8181 258.711 32.9284 258.923 32.996C259.136 33.0636 259.36 33.0871 259.583 33.0651C259.972 33.0959 260.363 33.0369 260.725 32.8927C261.087 32.7486 261.411 32.5232 261.669 32.2345L263.514 34.0486C263.019 34.5839 262.409 35.0032 261.729 35.2757C261.049 35.5482 260.315 35.667 259.583 35.6234C257.348 35.6234 254.777 34.826 254.777 30.5268C254.777 27.2641 256.655 25.4235 259.3 25.4235C262.235 25.4235 263.85 27.5432 263.85 30.1546V31.4836L257.799 31.5102ZM260.639 28.7061C260.509 28.4658 260.315 28.265 260.078 28.125C259.841 27.9851 259.569 27.9111 259.293 27.9111C259.017 27.9111 258.746 27.9851 258.509 28.125C258.272 28.265 258.078 28.4658 257.947 28.7061C257.832 28.9516 257.774 29.2196 257.779 29.4902H260.788C260.796 29.2206 260.743 28.9526 260.633 28.7061H260.639Z" fill="#FDBC1B"/>
<path d="M271.261 35.5171V34.6998C270.626 35.2921 269.786 35.6225 268.912 35.6234C268.494 35.6399 268.078 35.573 267.687 35.4269C267.296 35.2807 266.939 35.0583 266.637 34.7729C266.272 34.3952 265.992 33.9451 265.817 33.4524C265.641 32.9597 265.574 32.4358 265.62 31.9155V25.5364H268.703V31.5169C268.685 31.6881 268.704 31.8612 268.758 32.025C268.812 32.1887 268.9 32.3395 269.017 32.4674C269.133 32.5953 269.276 32.6976 269.436 32.7676C269.595 32.8376 269.767 32.8738 269.942 32.8738C270.116 32.8738 270.289 32.8376 270.448 32.7676C270.607 32.6976 270.75 32.5953 270.867 32.4674C270.984 32.3395 271.072 32.1887 271.126 32.025C271.18 31.8612 271.198 31.6881 271.18 31.5169V25.5364H274.263V35.5038L271.261 35.5171Z" fill="#FDBC1B"/>
<path d="M287.725 35.5171V29.5367C287.748 29.3625 287.732 29.1857 287.68 29.0178C287.628 28.85 287.541 28.6951 287.423 28.5633C287.306 28.4316 287.161 28.326 286.999 28.2537C286.837 28.1814 286.661 28.1441 286.483 28.1441C286.306 28.1441 286.13 28.1814 285.968 28.2537C285.806 28.326 285.661 28.4316 285.544 28.5633C285.426 28.6951 285.338 28.85 285.286 29.0178C285.234 29.1857 285.219 29.3625 285.241 29.5367V35.5171H282.165V29.5367C282.188 29.3625 282.173 29.1857 282.121 29.0178C282.068 28.85 281.981 28.6951 281.863 28.5633C281.746 28.4316 281.601 28.326 281.439 28.2537C281.277 28.1814 281.101 28.1441 280.924 28.1441C280.746 28.1441 280.57 28.1814 280.408 28.2537C280.246 28.326 280.101 28.4316 279.984 28.5633C279.866 28.6951 279.779 28.85 279.726 29.0178C279.674 29.1857 279.659 29.3625 279.682 29.5367V35.5171H276.606V25.5497H279.608V26.367C280.242 25.7729 281.082 25.4401 281.957 25.4367C282.421 25.4184 282.884 25.504 283.311 25.6869C283.737 25.8698 284.117 26.1455 284.42 26.4933C284.801 26.1388 285.249 25.8628 285.74 25.6813C286.23 25.4999 286.751 25.4168 287.274 25.4367C288.163 25.4083 289.029 25.7147 289.697 26.2939C290.076 26.6663 290.37 27.1132 290.562 27.6056C290.753 28.0979 290.837 28.6246 290.808 29.1512V35.5304L287.725 35.5171Z" fill="#FDBC1B"/>
<path d="M204.307 25.2507C201.096 26.1259 198.282 28.0518 196.324 30.7128V25.563H191.687V40.534V51.6044H196.324V40.7599C196.325 38.3438 197.096 35.9892 198.529 34.0305C199.962 32.0718 201.984 30.6087 204.307 29.849V25.2507Z" fill="#FDBC1B"/>
</g>
<defs>
<clipPath id="clip0">
<rect width="306" height="55" fill="white"/>
</clipPath>
</defs>
</svg>
