<svg width="90" height="196" viewBox="0 0 90 196" fill="none" xmlns="http://www.w3.org/2000/svg">
<g clip-path="url(#clip0)">
<path d="M51.3488 0.785691C48.4039 0.268869 45.42 0.00600436 42.4301 1.04075e-07C34.2294 -0.0608014 26.1515 1.99204 18.9759 5.96041C14.5207 2.79959 9.1883 1.10967 3.7247 1.12706H1.48012V35.6216C1.88162 39.8925 3.24787 44.0167 5.4759 47.6833C7.81612 51.3422 11.0414 54.3526 14.8537 56.4361C18.666 58.5197 22.9423 59.6092 27.2873 59.6041C27.488 59.6041 27.6886 59.6041 27.8837 59.6041H28.0464C28.7187 59.6041 29.3801 59.5337 30.0416 59.4686H30.2313C36.5157 58.7687 42.3252 55.79 46.5597 51.0966C50.7942 46.4032 53.1598 40.3209 53.2084 34.0014V1.1108L51.3488 0.785691ZM5.96385 5.73825C9.08389 6.04756 12.0993 7.03117 14.8012 8.62092C11.311 11.1495 8.31544 14.2976 5.96385 17.9083V5.73825ZM25.7259 55.0471C22.4152 54.8129 19.205 53.8091 16.351 52.1158C13.4971 50.4225 11.0783 48.0864 9.28735 45.2937C7.44772 42.2584 6.31206 38.8497 5.96385 35.3181V31.0483C6.67952 23.4623 11.2554 16.4182 18.6126 11.4386C18.9488 11.7474 19.2849 12.078 19.6157 12.4193C23.5511 16.5072 25.7455 21.9619 25.7367 27.6346L25.7259 55.0471ZM48.7139 33.9581C48.6643 39.0862 46.7693 44.0252 43.3755 47.8717C39.9817 51.7183 35.3159 54.2153 30.2313 54.9062V27.6346C30.2415 20.7963 27.5962 14.2208 22.8524 9.29282C22.7928 9.2278 22.7277 9.1682 22.6626 9.10317C30.253 5.22349 39.3669 3.68462 48.7301 4.94172L48.7139 33.9581Z" fill="#FDBC1B"/>
<path d="M18.6289 74.3697H22.2723V79.2464H19.2361C15.7722 79.2464 12.4501 80.6216 10.0007 83.0696C7.55134 85.5176 6.17529 88.8377 6.17529 92.2997H18.1789V97.1764H6.17529V115.54H0.970474V92.0233C0.970474 87.3422 2.83074 82.8528 6.14218 79.5422C9.45362 76.2317 13.9451 74.3711 18.6289 74.3697Z" fill="#FDBC1B"/>
<path d="M30.6163 74.3697V107.363C30.6163 110.56 32.1886 111.644 33.7608 111.644H35.241V116.19H33.2349C28.7349 116.19 25.753 113.643 25.753 107.743V74.3697H30.6163Z" fill="#FDBC1B"/>
<path d="M51.2133 86.6969C60.0994 86.6969 66.497 93.5189 66.497 101.484C66.497 109.558 60.4247 116.217 51.2133 116.217C42.0018 116.217 35.9241 109.558 35.9241 101.484C35.9241 93.4918 42.3217 86.6969 51.2133 86.6969ZM41.1289 101.484C41.1289 109.124 50.4054 115.475 58.0012 108.973C59.5042 107.698 60.5556 105.972 60.9994 104.053C62.5988 96.9651 57.3994 91.2431 51.2133 91.2431C49.8793 91.2494 48.5598 91.519 47.3303 92.0362C46.1009 92.5534 44.9857 93.3082 44.0488 94.2571C43.1119 95.2061 42.3717 96.3306 41.8706 97.5661C41.3695 98.8017 41.1175 100.124 41.1289 101.457V101.484Z" fill="#FDBC1B"/>
<path d="M38.9169 123.05H44.1217L33.712 151.275H29.7054L22.1151 129.227H22.0066L14.4163 151.275H10.4096L0 123.05H5.20482L12.3018 143.473H12.4102L19.4584 123.05H24.6633L31.7114 143.473H31.8199L38.9169 123.05Z" fill="#FDBC1B"/>
<path d="M72.1084 145.802C68.3133 150.029 64.3012 151.925 59.3675 151.925C49.3428 151.925 43.9753 144.665 43.9753 137.138C43.9753 129.119 49.7223 122.4 58.5542 122.4C67.2831 122.4 73.3554 129.065 73.3554 139.035H49.1584C49.9175 143.852 53.8211 147.374 59.2916 147.374C62.7615 147.374 65.8518 145.748 68.3458 142.822L72.1084 145.802ZM67.8253 135.025C67.3374 130.365 63.5422 126.951 58.5 126.951C52.5362 126.951 49.6681 131.178 49.1801 135.025H67.8253Z" fill="#FDBC1B"/>
<path d="M6.94518 185.168H9.11385C9.78118 185.117 10.4466 185.289 11.006 185.656C11.2982 185.861 11.5351 186.135 11.6959 186.453C11.8567 186.772 11.9363 187.125 11.9277 187.482C11.9354 187.831 11.8397 188.175 11.6526 188.47C11.4654 188.765 11.1952 188.998 10.8759 189.14C11.3509 189.215 11.7808 189.464 12.0817 189.839C12.3825 190.213 12.5325 190.687 12.5024 191.167C12.4985 191.491 12.4291 191.81 12.2984 192.107C12.1678 192.403 11.9786 192.671 11.7421 192.892C11.5057 193.114 11.2269 193.285 10.9224 193.397C10.618 193.508 10.2942 193.557 9.97048 193.54H6.94518V185.168ZM9.33614 188.826C10.1982 188.826 10.8705 188.327 10.8705 187.509C10.8779 187.319 10.8445 187.129 10.7725 186.952C10.7005 186.775 10.5916 186.616 10.453 186.485C10.075 186.193 9.60077 186.054 9.12469 186.095H8.00783V188.804L9.33614 188.826ZM9.62349 192.619C11.0494 192.619 11.456 191.941 11.456 191.183C11.456 190.516 11.0494 189.731 9.62349 189.731H7.99698V192.619H9.62349Z" fill="#FDBC1B"/>
<path d="M15.5602 193.48L13.1584 187.807H14.2861L16.1349 192.25L18.0054 187.807H19.0898L15.5494 196H14.4867L15.5602 193.48Z" fill="#FDBC1B"/>
<path d="M23.1343 185.168H27.4717V186.16H24.197V188.826H27.4825V189.823H24.197V193.567H23.1127L23.1343 185.168Z" fill="#FDBC1B"/>
<path d="M29.7271 185.168V191.768C29.7271 192.418 30.047 192.64 30.3669 192.64H30.6651V193.567H30.2584C29.3368 193.567 28.7295 193.025 28.7295 191.844V185.168H29.7271Z" fill="#FDBC1B"/>
<path d="M34.4711 187.677C34.875 187.667 35.2769 187.737 35.6533 187.884C36.0297 188.031 36.3731 188.252 36.6633 188.533C36.9535 188.814 37.1848 189.15 37.3437 189.521C37.5026 189.892 37.5858 190.291 37.5886 190.695C37.555 191.5 37.2116 192.26 36.6301 192.818C36.0486 193.375 35.2741 193.686 34.4684 193.686C33.6627 193.686 32.8881 193.375 32.3066 192.818C31.7252 192.26 31.3818 191.5 31.3482 190.695C31.3509 190.291 31.4343 189.891 31.5935 189.52C31.7527 189.148 31.9845 188.812 32.2753 188.531C32.5661 188.25 32.9101 188.029 33.2872 187.883C33.6642 187.736 34.0667 187.666 34.4711 187.677ZM32.4108 190.695C32.3965 190.974 32.4391 191.253 32.536 191.515C32.633 191.777 32.7822 192.016 32.9747 192.219C33.1671 192.421 33.3988 192.583 33.6556 192.693C33.9124 192.803 34.1889 192.86 34.4684 192.86C34.7478 192.86 35.0244 192.803 35.2811 192.693C35.5379 192.583 35.7696 192.421 35.9621 192.219C36.1545 192.016 36.3038 191.777 36.4007 191.515C36.4976 191.253 36.5402 190.974 36.5259 190.695C36.5402 190.416 36.4976 190.137 36.4007 189.875C36.3038 189.613 36.1545 189.374 35.9621 189.172C35.7696 188.969 35.5379 188.808 35.2811 188.698C35.0244 188.587 34.7478 188.531 34.4684 188.531C34.1889 188.531 33.9124 188.587 33.6556 188.698C33.3988 188.808 33.1671 188.969 32.9747 189.172C32.7822 189.374 32.633 189.613 32.536 189.875C32.4391 190.137 32.3965 190.416 32.4108 190.695Z" fill="#FDBC1B"/>
<path d="M46.2036 187.807H47.2879L45.1626 193.567H44.3223L42.7771 189.07L41.2048 193.567H40.3861L38.2608 187.807H39.3452L40.7928 191.974L42.2349 187.807H43.2922L44.7343 191.974L46.2036 187.807Z" fill="#FDBC1B"/>
<path d="M53.512 192.451C53.201 192.841 52.806 193.156 52.3564 193.373C51.9068 193.589 51.4142 193.702 50.9151 193.703C50.5064 193.727 50.0972 193.666 49.7131 193.524C49.329 193.383 48.9784 193.163 48.6831 192.88C48.3879 192.597 48.1544 192.255 47.9973 191.877C47.8403 191.5 47.7631 191.093 47.7705 190.684C47.7571 190.289 47.8247 189.894 47.9691 189.526C48.1135 189.157 48.3317 188.821 48.6104 188.54C48.889 188.258 49.2223 188.037 49.5897 187.888C49.957 187.74 50.3509 187.668 50.747 187.677C52.5307 187.677 53.7669 189.037 53.7669 191.069H48.8331C48.9064 191.559 49.1587 192.004 49.5413 192.318C49.9239 192.632 50.4095 192.793 50.9042 192.771C51.2612 192.763 51.6121 192.677 51.9311 192.516C52.25 192.356 52.529 192.126 52.7476 191.844L53.512 192.451ZM52.6391 190.251C52.5631 189.803 52.3308 189.396 51.9835 189.103C51.6362 188.81 51.1962 188.649 50.7416 188.649C50.2869 188.649 49.8469 188.81 49.4996 189.103C49.1523 189.396 48.92 189.803 48.844 190.251H52.6391Z" fill="#FDBC1B"/>
<path d="M55.0735 187.807H56.0657V188.625C56.5645 187.731 57.0416 187.677 57.8819 187.677V188.728C57.7326 188.694 57.5798 188.675 57.4265 188.674C56.597 188.674 56.044 189.248 56.044 190.3V193.551H55.0518L55.0735 187.807Z" fill="#FDBC1B"/>
<path d="M61.8506 185.168H66.188V186.16H62.8916V188.826H66.1771V189.823H62.8916V193.567H61.8072L61.8506 185.168Z" fill="#FDBC1B"/>
<path d="M71.1868 189.709C71.1868 188.761 70.2325 188.549 69.4572 188.549C68.9035 188.556 68.3593 188.694 67.8687 188.95L67.4349 188.116C68.0919 187.83 68.8003 187.681 69.5169 187.677C70.894 187.677 72.1789 188.262 72.1789 189.633V193.567H71.2518V192.949C71.0192 193.202 70.734 193.4 70.4165 193.53C70.0989 193.66 69.7567 193.719 69.4139 193.703C68.0096 193.703 66.9036 192.917 66.9036 191.633C66.9036 190.581 67.7982 189.655 69.403 189.655C70.0576 189.644 70.6932 189.875 71.1868 190.305V189.709ZM69.5928 190.527C68.3729 190.527 67.9663 191.112 67.9663 191.676C67.9663 192.24 68.3729 192.83 69.5928 192.83C70.8127 192.83 71.2193 192.24 71.2193 191.676C71.2193 191.112 70.8072 190.527 69.5928 190.527Z" fill="#FDBC1B"/>
<path d="M74.2229 185.315C74.3614 185.314 74.4972 185.354 74.6129 185.43C74.7286 185.506 74.8191 185.615 74.8729 185.742C74.9267 185.87 74.9413 186.011 74.9149 186.147C74.8885 186.283 74.8224 186.408 74.7248 186.506C74.6272 186.604 74.5026 186.671 74.3668 186.699C74.2309 186.726 74.09 186.713 73.9619 186.66C73.8338 186.607 73.7243 186.518 73.6472 186.403C73.5701 186.287 73.5289 186.152 73.5289 186.014C73.5282 185.922 73.5456 185.831 73.5802 185.747C73.6147 185.662 73.6657 185.585 73.7302 185.52C73.7948 185.455 73.8715 185.403 73.956 185.368C74.0406 185.333 74.1313 185.315 74.2229 185.315ZM73.7349 187.807H74.7325V193.567H73.7349V187.807Z" fill="#FDBC1B"/>
<path d="M76.3807 187.807H77.3783V188.625C77.8717 187.731 78.3488 187.677 79.1892 187.677V188.728C79.0398 188.693 78.8871 188.675 78.7337 188.674C77.9042 188.674 77.3566 189.248 77.3566 190.3V193.551H76.359L76.3807 187.807Z" fill="#FDBC1B"/>
<path d="M81.9325 193.48L79.5307 187.807H80.6584L82.5072 192.25L84.3777 187.807H85.4621L81.9217 196H80.8807L81.9325 193.48Z" fill="#FDBC1B"/>
<path d="M14.6386 177.246V171.904L13.0554 174.662H11.3042L9.72109 171.904V177.246H6.97229V166.084H9.68313L12.1934 171.01L14.7036 166.084H17.4145V177.246H14.6386Z" fill="#FDBC1B"/>
<path d="M24.1211 177.246V176.558C23.59 177.059 22.8886 177.34 22.1584 177.344C21.8096 177.356 21.4618 177.298 21.1358 177.174C20.8098 177.049 20.5123 176.86 20.2608 176.618C19.9559 176.299 19.7226 175.92 19.5768 175.504C19.4309 175.088 19.3757 174.646 19.4151 174.207V168.815H21.9849V173.86C21.9701 174.005 21.9858 174.151 22.0311 174.289C22.0764 174.428 22.1502 174.555 22.2478 174.663C22.3454 174.771 22.4646 174.857 22.5977 174.917C22.7308 174.976 22.8748 175.006 23.0205 175.006C23.1661 175.006 23.3102 174.976 23.4433 174.917C23.5764 174.857 23.6956 174.771 23.7932 174.663C23.8908 174.555 23.9646 174.428 24.0099 174.289C24.0551 174.151 24.0709 174.005 24.056 173.86V168.815H26.6313V177.246H24.1211Z" fill="#FDBC1B"/>
<path d="M31.4458 177.344C30.1771 177.344 28.9355 177.279 27.7753 176.119L29.4235 174.477C29.7001 174.728 30.025 174.92 30.3783 175.041C30.7316 175.162 31.1059 175.21 31.4783 175.182C31.8524 175.182 32.5626 175.074 32.5626 174.64C32.5626 174.407 32.4542 174.152 31.95 174.098L30.6488 173.974C29.1904 173.833 28.2036 173.172 28.2036 171.524C28.2036 169.66 29.8789 168.734 31.5596 168.734C32.9422 168.734 34.0536 168.94 34.8831 169.769L33.3 171.356C32.7906 170.965 32.1499 170.784 31.5108 170.852C30.8873 170.852 30.6813 171.15 30.6813 171.34C30.6813 171.432 30.6488 171.747 31.2235 171.806L32.5247 171.936C34.2976 172.104 35.0675 173.155 35.0675 174.505C35.0837 176.477 33.3922 177.344 31.4458 177.344Z" fill="#FDBC1B"/>
<path d="M38.6295 173.86C38.633 174.047 38.6753 174.231 38.7538 174.401C38.8323 174.57 38.9452 174.722 39.0854 174.846C39.2256 174.97 39.39 175.063 39.5682 175.12C39.7463 175.177 39.9344 175.196 40.1205 175.176C40.4454 175.202 40.7718 175.152 41.0739 175.03C41.376 174.907 41.6454 174.716 41.8608 174.472L43.3735 176.011C42.9642 176.46 42.4599 176.813 41.8973 177.044C41.3346 177.274 40.7277 177.377 40.1205 177.344C38.25 177.344 36.103 176.667 36.103 173.009C36.103 170.251 37.6699 168.674 39.8982 168.674C42.3488 168.674 43.6934 170.462 43.6934 172.673V173.816L38.6295 173.86ZM40.9988 171.492C40.8885 171.293 40.727 171.128 40.5311 171.012C40.3352 170.897 40.112 170.836 39.8846 170.836C39.6573 170.836 39.4341 170.897 39.2382 171.012C39.0422 171.128 38.8808 171.293 38.7705 171.492C38.6738 171.699 38.6256 171.925 38.6295 172.153H41.1398C41.1437 171.925 41.0955 171.699 40.9988 171.492Z" fill="#FDBC1B"/>
<path d="M49.8795 177.246V176.558C49.3509 177.06 48.651 177.341 47.9223 177.344C47.5734 177.356 47.2257 177.298 46.8997 177.174C46.5737 177.049 46.2761 176.86 46.0247 176.618C45.7191 176.3 45.485 175.92 45.3382 175.504C45.1914 175.088 45.1352 174.646 45.1735 174.207V168.815H47.7488V173.86C47.7339 174.005 47.7497 174.151 47.7949 174.289C47.8402 174.428 47.9141 174.555 48.0117 174.663C48.1093 174.771 48.2285 174.857 48.3616 174.917C48.4947 174.976 48.6387 175.006 48.7843 175.006C48.93 175.006 49.074 174.976 49.2071 174.917C49.3402 174.857 49.4594 174.771 49.557 174.663C49.6546 174.555 49.7284 174.428 49.7737 174.289C49.819 174.151 49.8347 174.005 49.8199 173.86V168.815H52.3898V177.246H49.8795Z" fill="#FDBC1B"/>
<path d="M63.6181 177.246V172.202C63.6329 172.057 63.6172 171.911 63.5719 171.772C63.5266 171.634 63.4528 171.507 63.3552 171.398C63.2576 171.29 63.1384 171.204 63.0053 171.145C62.8722 171.086 62.7282 171.055 62.5825 171.055C62.4369 171.055 62.2928 171.086 62.1597 171.145C62.0266 171.204 61.9074 171.29 61.8098 171.398C61.7122 171.507 61.6384 171.634 61.5931 171.772C61.5479 171.911 61.5321 172.057 61.547 172.202V177.246H58.9717V172.202C58.9901 172.055 58.9771 171.907 58.9337 171.766C58.8902 171.625 58.8172 171.494 58.7195 171.384C58.6218 171.273 58.5017 171.184 58.3671 171.124C58.2325 171.063 58.0865 171.032 57.9388 171.032C57.7912 171.032 57.6452 171.063 57.5106 171.124C57.376 171.184 57.2559 171.273 57.1582 171.384C57.0605 171.494 56.9875 171.625 56.944 171.766C56.9006 171.907 56.8876 172.055 56.906 172.202V177.246H54.3307V168.815H56.841V169.503C57.3712 169.001 58.0732 168.72 58.8036 168.718C59.1913 168.703 59.5774 168.775 59.9332 168.93C60.289 169.085 60.6052 169.318 60.8584 169.612C61.176 169.312 61.55 169.079 61.9586 168.926C62.3672 168.772 62.8023 168.701 63.2385 168.718C63.9811 168.694 64.7053 168.951 65.2663 169.438C65.5809 169.754 65.8256 170.132 65.9844 170.549C66.1432 170.965 66.2126 171.41 66.1879 171.855V177.246H63.6181Z" fill="#FDBC1B"/>
<path d="M90 122.736C86.5622 123.684 83.5491 125.773 81.4554 128.658V123.05H76.4892V139.257V151.275H81.4554V139.522C81.4555 136.904 82.2811 134.351 83.8149 132.228C85.3487 130.105 87.5128 128.518 90 127.694V122.736Z" fill="#FDBC1B"/>
</g>
<defs>
<clipPath id="clip0">
<rect width="90" height="196" fill="white"/>
</clipPath>
</defs>
</svg>
